<svg xmlns="http://www.w3.org/2000/svg" viewBox="0 0 100 100" fill="none">
  <!-- Top Bun (Orange) -->
  <path d="M25 43 Q 25 18 50 18 Q 75 18 75 43 Z" stroke="#FF3D00" stroke-width="4.5" stroke-linecap="round" stroke-linejoin="round"/>
  
  <!-- Wavy Line (Orange) -->
  <path d="M 22 51 C 26 51 28 47 32 47 C 36 47 38 51 42 51 C 46 51 48 47 52 47 C 56 47 58 51 62 51 C 66 51 68 47 72 47 C 76 47 78 51 80 51" stroke="#FF3D00" stroke-width="3.5" stroke-linecap="round"/>
  
  <!-- Patty with middle bite/bend (Black) -->
  <path d="M 25 58 L 44 58 L 49.5 64.5 L 55 58 L 75 58 C 79 58, 79 66, 75 66 L 25 66 C 21 66, 21 58, 25 58 Z" stroke="#111111" stroke-width="4" stroke-linejoin="round"/>
  
  <!-- Bottom Bun (Black) -->
  <path d="M 25 73 L 75 73 C 80 73, 80 81, 75 81 L 25 81 C 20 81, 20 73, 25 73 Z" stroke="#111111" stroke-width="4" stroke-linejoin="round"/>
</svg>
